<svg width="33" height="32" viewBox="0 0 33 32" fill="none" xmlns="http://www.w3.org/2000/svg">
<path d="M28.845 8.62495C28.7843 8.47502 28.6882 8.34204 28.5649 8.23742C28.4415 8.1328 28.2947 8.05965 28.1369 8.02425C27.979 7.98886 27.815 7.99227 27.6588 8.03419C27.5026 8.07611 27.3589 8.15529 27.24 8.26495L22.2025 12.9137L20.0487 12.4512L19.5862 10.2974L24.235 5.25995C24.3447 5.14106 24.4238 4.99736 24.4658 4.84115C24.5077 4.68494 24.5111 4.5209 24.4757 4.36309C24.4403 4.20527 24.3671 4.0584 24.2625 3.93506C24.1579 3.81173 24.0249 3.71561 23.875 3.65495C22.5087 3.10224 21.0275 2.89355 19.5616 3.04722C18.0958 3.20089 16.6901 3.71221 15.4681 4.53626C14.2461 5.36031 13.2452 6.47187 12.5533 7.77326C11.8614 9.07466 11.4997 10.5261 11.5 11.9999C11.4984 13.2445 11.7537 14.4761 12.25 15.6174L4.72375 22.1249C4.705 22.1399 4.6875 22.1574 4.67 22.1737C3.91977 22.9239 3.49829 23.9415 3.49829 25.0024C3.49829 25.5278 3.60177 26.048 3.80281 26.5334C4.00385 27.0187 4.29852 27.4597 4.67 27.8312C5.04147 28.2027 5.48248 28.4973 5.96784 28.6984C6.4532 28.8994 6.9734 29.0029 7.49875 29.0029C8.55973 29.0029 9.57727 28.5814 10.3275 27.8312C10.3437 27.8149 10.3612 27.7962 10.3762 27.7787L16.8825 20.2499C18.253 20.8516 19.752 21.1019 21.2436 20.9782C22.7353 20.8545 24.1725 20.3608 25.4253 19.5417C26.678 18.7226 27.7067 17.6039 28.4182 16.2871C29.1297 14.9702 29.5015 13.4967 29.5 11.9999C29.5019 10.8432 29.2795 9.69701 28.845 8.62495ZM20.5 18.9999C19.3163 18.9983 18.1523 18.6973 17.1162 18.1249C16.9155 18.0141 16.6828 17.9755 16.457 18.0158C16.2313 18.0561 16.0262 18.1727 15.8762 18.3462L8.88875 26.4387C8.51062 26.7979 8.00712 26.9953 7.4856 26.9886C6.96408 26.9819 6.46579 26.7718 6.09699 26.403C5.72819 26.0342 5.51805 25.5359 5.51137 25.0143C5.50469 24.4928 5.70201 23.9893 6.06125 23.6112L14.1475 16.6249C14.3213 16.4749 14.4381 16.2696 14.4784 16.0436C14.5187 15.8176 14.48 15.5846 14.3687 15.3837C13.7313 14.2307 13.4321 12.9213 13.5057 11.6059C13.5792 10.2905 14.0224 9.0226 14.7844 7.94789C15.5464 6.87318 16.5963 6.03532 17.8132 5.53063C19.0301 5.02595 20.3648 4.87494 21.6637 5.09495L17.7637 9.3212C17.6552 9.43891 17.5766 9.58096 17.5344 9.7354C17.4922 9.88984 17.4877 10.0522 17.5212 10.2087L18.2287 13.4999C18.2692 13.6882 18.3632 13.8607 18.4993 13.9969C18.6355 14.133 18.808 14.227 18.9962 14.2674L22.29 14.9749C22.4465 15.0085 22.6089 15.004 22.7633 14.9618C22.9177 14.9196 23.0598 14.841 23.1775 14.7324L27.4037 10.8324C27.5722 11.8362 27.52 12.8646 27.2508 13.8462C26.9816 14.8277 26.5017 15.7388 25.8447 16.5161C25.1876 17.2935 24.3692 17.9183 23.4462 18.3472C22.5232 18.7762 21.5178 18.9989 20.5 18.9999Z" fill="black"/>
</svg>
